<?xml version="1.0" encoding="UTF-8"?><svg id="Camada_1" xmlns="http://www.w3.org/2000/svg" xmlns:xlink="http://www.w3.org/1999/xlink" viewBox="0 0 845.37 322.07"><defs><style>.cls-1{fill:url(#linear-gradient-2);}.cls-2{fill:url(#linear-gradient-3);}.cls-3{fill:url(#linear-gradient);}</style><linearGradient id="linear-gradient" x1="13.39" y1="37.69" x2="142.16" y2="37.69" gradientTransform="matrix(1, 0, 0, 1, 0, 0)" gradientUnits="userSpaceOnUse"><stop offset=".11" stop-color="#ffdc00"/><stop offset="1" stop-color="#ff662e"/></linearGradient><linearGradient id="linear-gradient-2" x1="81.28" y1="108.2" x2="142.16" y2="108.2" gradientTransform="matrix(1, 0, 0, 1, 0, 0)" gradientUnits="userSpaceOnUse"><stop offset=".44" stop-color="#ffdc00"/><stop offset="1" stop-color="#ffaa32"/></linearGradient><linearGradient id="linear-gradient-3" x1="8.59" y1="95.5" x2="112.62" y2="219.48" gradientTransform="matrix(1, 0, 0, 1, 0, 0)" gradientUnits="userSpaceOnUse"><stop offset=".24" stop-color="#ffdc00"/><stop offset=".32" stop-color="#eadc13"/><stop offset=".49" stop-color="#b6dd44"/><stop offset=".73" stop-color="#63e093"/><stop offset=".82" stop-color="#41e1b4"/></linearGradient></defs><path d="M515.56,143c0,31.22-24,53.3-53.75,53.3s-53.3-22.09-53.3-53.3,23.56-53.16,53.3-53.16,53.75,22.23,53.75,53.16Zm-22.24,0c0-17.52-12.52-32.54-30.92-32.54-19.73,0-31.36,15.02-31.36,32.54s11.63,32.69,31.36,32.69,30.92-14.87,30.92-32.69Zm-213.81,51.69v-20.17h-54.19v-22.53h51.69v-19.88h-51.69v-20.47h54.19v-20.17h-76.13v103.22h76.13Zm44.63-103.22h-22.24l35.34,103.22h22.68l35.34-103.22h-22.38l-24.15,74.8-24.59-74.8Zm285.48,103.22v-20.17h-47.12V91.47h-21.94v103.22h69.06Zm60.66-18.41c-14.87,0-21.35-11.63-21.35-26.36v-58.46h-21.94v57.43c0,31.51,16.79,47.42,43.29,47.42s43.29-15.9,43.29-47.42v-57.43h-21.94v58.17c0,16.64-6.33,26.65-21.35,26.65Zm161.68,18.41h-22.68l-8.25-20.32h-39.91l-8.1,20.32h-22.68l40.35-103.22h20.91l40.35,103.22Zm-37.99-39.76l-12.81-33.72-12.81,33.72h25.62ZM246.67,293.29h-36.12v-23.48h35.08v-6.79h-35.08v-22.25h36.12v-6.79h-43.28v66.1h43.28v-6.79Zm69.59-59.31h-7.26v53.75l-37.53-53.75h-7.36v66.1h7.17v-53.56l37.53,53.56h7.45v-66.1Zm61.2,59.31h-36.12v-23.48h35.08v-6.79h-35.08v-22.25h36.12v-6.79h-43.28v66.1h43.28v-6.79Zm66.2,6.79h-8.77l-17.26-24.33h-15.56v24.33h-7.17v-66.1h23.01c14.8,0,24.14,8.3,24.14,20.93,0,10.28-6.04,17.54-16.03,19.99l17.63,25.18Zm-24.71-31.02c9.43,0,15.94-4.53,15.94-14.14s-6.32-14.14-15.94-14.14h-16.88v28.29h16.88Zm70.06,4.9h20.37c-.47,9.43-7.07,20.37-21.88,20.37-15.65,0-26.03-11.88-26.03-27.16s10.47-27.44,25.56-27.44c11.03,0,18.86,6.51,20.93,16.5h7.64c-3.39-15.84-15.09-23.29-28.57-23.29-19.33,0-32.82,15.18-32.82,34.23s13.58,33.95,33.19,33.95c9.81,0,17.26-3.87,21.97-10.09l.94,9.05h5.47v-32.91h-26.78v6.79Zm52.34-39.98h-7.17v66.1h7.17v-66.1Zm72.7,66.1h-7.73l-6.04-15.18h-32.25l-5.85,15.18h-7.83l25.84-66.1h8.11l25.74,66.1Zm-16.41-22.07l-13.48-34.8-13.3,34.8h26.78Z"/><g><rect class="cls-3" x="13.39" y="20.96" width="128.76" height="33.47"/><rect class="cls-1" x="81.28" y="91.47" width="60.88" height="33.47"/><polygon class="cls-2" points="46.86 161.22 46.86 91.47 13.39 91.47 13.39 194.69 142.16 194.69 142.16 161.22 46.86 161.22"/></g></svg>